<?xml version="1.0" encoding="utf-8"?>
<svg viewBox="0 0 512 512" xmlns="http://www.w3.org/2000/svg" xmlns:bx="https://boxy-svg.com">
  <defs>
    <bx:grid x="0" y="0" width="51.2" height="51.2"/>
  </defs>
  <path d="M 496.968 15.267 C 501.401 19.516 503.318 24.137 503 30.256 L 503.019 482.5 C 503.292 488.656 500.954 492.906 496.671 497.034 C 492.453 501.398 487.876 503.316 481.75 503 L 29.5 503.019 C 23.348 503.291 19.096 500.95 14.969 496.67 C 10.547 492.419 8.682 487.863 9 481.745 L 8.981 29.503 C 8.712 23.345 11.063 19.083 15.339 14.953 C 19.56 10.581 24.122 8.687 30.246 9 L 482.373 8.985 C 485.431 8.941 487.67 9.539 490.39 10.799 C 491.728 11.376 492.722 11.945 493.932 12.786 C 494.534 13.192 494.994 13.544 495.567 14.016 C 496.09 14.441 497.591 15.833 497.591 15.833" style="fill: rgb(0, 202, 34);"/>
  <g style="">
    <rect x="107.8" y="222" width="97" height="7.306" style="fill: rgba(41, 255, 59, 0.45);"/>
    <rect x="107.8" y="121" width="101" height="101" style="fill: rgba(0, 0, 0, 0.47);"/>
    <rect x="107.8" y="125" width="97" height="97" style=""/>
  </g>
  <g style="" transform="matrix(1, 0, 0, 1, 196, 0)">
    <rect x="107.8" y="222" width="97" height="7.306" style="fill: rgba(41, 255, 59, 0.45);"/>
    <rect x="107.8" y="121" width="101" height="101" style="fill: rgba(0, 0, 0, 0.47);"/>
    <rect x="107.8" y="125" width="97" height="97" style=""/>
  </g>
  <g style="" transform="matrix(1, 0, 0, 1, 96.81691, 101)">
    <rect x="107.8" y="121" width="101" height="101" style="fill: rgba(0, 0, 0, 0.47);"/>
    <rect x="107.8" y="125" width="97" height="97" style=""/>
  </g>
  <g style="" transform="matrix(2.040521, 0, 0, 1.493474, -64.078644, 88.506599)">
    <rect x="107.8" y="222" width="97" height="7.306" style="fill: rgba(41, 255, 59, 0.45);"/>
    <rect x="107.8" y="121" width="99.244" height="101" style="fill: rgba(0, 0, 0, 0.47);"/>
    <rect x="107.8" y="125" width="97" height="97" style=""/>
  </g>
  <g style="" transform="matrix(1, 0, 0, 1, 96.800003, 209)">
    <rect x="107.8" y="125" width="102.6" height="97" style="fill: rgb(0, 202, 34);"/>
  </g>
</svg>